<svg data-v-423bf9ae="" xmlns="http://www.w3.org/2000/svg" viewBox="0 0 548 90" class="iconLeft"><!----><!----><!----><g data-v-423bf9ae="" id="9f759e28-fc9d-4eb8-b791-8bf21516c8d2" fill="#292523" transform="matrix(6.564551175737441,0,0,6.564551175737441,113.65482886909206,-12.833696913131703)"><path d="M1.80 8.67L1.80 8.67L1.80 8.67Q1.80 9.56 2.06 10.28L2.06 10.28L2.06 10.28Q2.32 11.01 2.75 11.46L2.75 11.46L2.75 11.46Q3.19 11.92 3.74 12.17L3.74 12.17L3.74 12.17Q4.29 12.41 4.91 12.41L4.91 12.41L4.91 12.41Q5.56 12.41 6.19 12.12L6.19 12.12L6.19 12.12Q6.82 11.83 7.29 11.39L7.29 11.39L7.54 11.91L7.54 11.91Q7.08 12.47 6.22 12.91L6.22 12.91L6.22 12.91Q5.37 13.34 4.38 13.34L4.38 13.34L4.38 13.34Q3.58 13.34 2.86 13.06L2.86 13.06L2.86 13.06Q2.14 12.78 1.57 12.27L1.57 12.27L1.57 12.27Q1.00 11.76 0.67 10.94L0.67 10.94L0.67 10.94Q0.33 10.13 0.33 9.14L0.33 9.14L0.33 9.14Q0.33 8.70 0.41 8.25L0.41 8.25L0.41 8.25Q0.49 7.80 0.67 7.34L0.67 7.34L0.67 7.34Q0.84 6.88 1.09 6.46L1.09 6.46L1.09 6.46Q1.33 6.05 1.70 5.69L1.70 5.69L1.70 5.69Q2.06 5.33 2.50 5.06L2.50 5.06L2.50 5.06Q2.93 4.79 3.51 4.64L3.51 4.64L3.51 4.64Q4.09 4.49 4.74 4.49L4.74 4.49L4.74 4.49Q6.30 4.49 7.21 5.17L7.21 5.17L7 7.45L6.40 7.36L6.12 5.86L6.12 5.86Q5.56 5.15 4.35 5.14L4.35 5.14L4.35 5.14Q3.25 5.14 2.53 6.10L2.53 6.10L2.53 6.10Q1.80 7.05 1.80 8.67ZM11.20 11.89L11.20 10.25L11.20 10.25Q10.14 10.45 9.69 10.82L9.69 10.82L9.69 10.82Q9.24 11.18 9.24 11.70L9.24 11.70L9.24 11.70Q9.24 12.00 9.45 12.25L9.45 12.25L9.45 12.25Q9.66 12.50 10.01 12.50L10.01 12.50L10.01 12.50Q10.34 12.50 10.67 12.30L10.67 12.30L10.67 12.30Q11.00 12.11 11.20 11.89L11.20 11.89ZM12.39 13.30L12.39 13.30L12.39 13.30Q11.85 13.30 11.59 13.02L11.59 13.02L11.59 13.02Q11.33 12.74 11.33 12.38L11.33 12.38L11.33 12.28L11.25 12.28L11.25 12.28Q11.17 12.43 11.04 12.60L11.04 12.60L11.04 12.60Q10.90 12.76 10.68 12.94L10.68 12.94L10.68 12.94Q10.46 13.12 10.12 13.23L10.12 13.23L10.12 13.23Q9.78 13.34 9.39 13.34L9.39 13.34L9.39 13.34Q8.82 13.34 8.43 12.98L8.43 12.98L8.43 12.98Q8.05 12.63 8.05 12.02L8.05 12.02L8.05 12.02Q8.05 11.63 8.23 11.28L8.23 11.28L8.23 11.28Q8.41 10.92 8.78 10.62L8.78 10.62L8.78 10.62Q9.15 10.32 9.77 10.12L9.77 10.12L9.77 10.12Q10.39 9.91 11.20 9.86L11.20 9.86L11.20 9.48L11.20 9.48Q11.20 9.11 11.14 8.80L11.14 8.80L11.14 8.80Q11.09 8.50 10.95 8.23L10.95 8.23L10.95 8.23Q10.82 7.96 10.58 7.82L10.58 7.82L10.58 7.82Q10.34 7.68 9.99 7.68L9.99 7.68L9.99 7.68Q9.78 7.68 9.64 7.76L9.64 7.76L9.64 7.76Q9.50 7.84 9.43 8.03L9.43 8.03L9.43 8.03Q9.36 8.21 9.32 8.40L9.32 8.40L9.32 8.40Q9.29 8.60 9.26 8.91L9.26 8.91L9.26 8.91Q9.24 9.06 9.23 9.13L9.23 9.13L9.23 9.13Q9.08 9.13 8.99 9.12L8.99 9.12L8.99 9.12Q8.89 9.11 8.74 9.07L8.74 9.07L8.74 9.07Q8.60 9.04 8.51 8.97L8.51 8.97L8.51 8.97Q8.42 8.89 8.35 8.75L8.35 8.75L8.35 8.75Q8.28 8.61 8.28 8.42L8.28 8.42L8.28 8.42Q8.28 8.07 8.67 7.73L8.67 7.73L8.67 7.73Q9.06 7.39 9.60 7.20L9.60 7.20L9.60 7.20Q10.14 7.01 10.62 7.01L10.62 7.01L10.62 7.01Q11.52 7.01 11.92 7.52L11.92 7.52L11.92 7.52Q12.31 8.03 12.31 9.12L12.31 9.12L12.31 11.61L12.31 11.61Q12.31 12.09 12.46 12.26L12.46 12.26L12.46 12.26Q12.60 12.44 13.07 12.52L13.07 12.52L13.41 12.58L13.33 13.16L13.33 13.16Q13.22 13.17 13.05 13.21L13.05 13.21L13.05 13.21Q12.88 13.25 12.73 13.28L12.73 13.28L12.73 13.28Q12.57 13.30 12.39 13.30ZM16.00 4.66L16.00 12.38L17.09 12.62L17.01 13.17L13.74 13.17L13.82 12.63L14.86 12.38L14.86 5.53L13.78 5.17L13.86 4.65L15.83 4.49L16.00 4.66ZM19.80 4.66L19.80 12.38L20.89 12.62L20.82 13.17L17.54 13.17L17.62 12.63L18.66 12.38L18.66 5.53L17.58 5.17L17.66 4.65L19.63 4.49L19.80 4.66ZM25.78 12.33L25.78 12.28L25.70 12.28L25.70 12.28Q24.99 13.33 23.73 13.33L23.73 13.33L23.73 13.33Q22.21 13.33 22.21 11.35L22.21 11.35L22.21 8.20L21.27 7.82L21.36 7.28L23.20 7.14L23.37 7.30L23.37 11.01L23.37 11.01Q23.37 12.39 24.42 12.39L24.42 12.39L24.42 12.39Q25.19 12.39 25.70 11.86L25.70 11.86L25.70 8.23L24.60 7.94L24.67 7.33L26.68 7.14L26.83 7.30L26.83 11.70L26.83 11.70Q26.83 11.95 26.88 12.11L26.88 12.11L26.88 12.11Q26.92 12.27 27.04 12.36L27.04 12.36L27.04 12.36Q27.15 12.45 27.25 12.49L27.25 12.49L27.25 12.49Q27.36 12.52 27.57 12.56L27.57 12.56L27.88 12.63L27.82 13.21L27.82 13.21Q27.30 13.33 26.78 13.33L26.78 13.33L26.78 13.33Q26.29 13.33 26.03 13.05L26.03 13.05L26.03 13.05Q25.78 12.78 25.78 12.33L25.78 12.33ZM34.23 8.18L34.23 8.18L34.31 8.18L34.31 8.18Q34.67 7.71 35.20 7.41L35.20 7.41L35.20 7.41Q35.73 7.10 36.34 7.10L36.34 7.10L36.34 7.10Q37.95 7.10 37.95 9.01L37.95 9.01L37.95 12.38L38.90 12.62L38.81 13.16L35.90 13.16L35.95 12.67L36.80 12.39L36.80 9.17L36.80 9.17Q36.80 8.66 36.49 8.32L36.49 8.32L36.49 8.32Q36.19 7.98 35.66 7.98L35.66 7.98L35.66 7.98Q35.25 7.98 34.94 8.16L34.94 8.16L34.94 8.16Q34.64 8.34 34.34 8.66L34.34 8.66L34.34 12.39L35.36 12.63L35.29 13.17L32.26 13.17L32.34 12.67L33.24 12.39L33.24 9.17L33.24 9.17Q33.24 8.64 32.90 8.31L32.90 8.31L32.90 8.31Q32.57 7.98 32.07 7.98L32.07 7.98L32.07 7.98Q31.23 7.98 30.71 8.57L30.71 8.57L30.71 12.39L31.69 12.63L31.62 13.17L28.46 13.17L28.53 12.67L29.56 12.39L29.56 8.25L28.46 7.91L28.53 7.39L30.61 7.11L30.73 7.25L30.61 8.11L30.68 8.11L30.68 8.11Q31.04 7.66 31.59 7.35L31.59 7.35L31.59 7.35Q32.13 7.04 32.73 7.04L32.73 7.04L32.73 7.04Q33.25 7.04 33.67 7.31L33.67 7.31L33.67 7.31Q34.08 7.59 34.23 8.18ZM44.14 5.17L43.99 7.11L43.31 7.03L43.13 5.72L43.13 5.72Q43.03 5.50 42.69 5.29L42.69 5.29L42.69 5.29Q42.36 5.08 41.98 5.08L41.98 5.08L41.98 5.08Q41.43 5.08 41.08 5.40L41.08 5.40L41.08 5.40Q40.73 5.73 40.73 6.36L40.73 6.36L40.73 6.36Q40.73 6.68 40.87 6.95L40.87 6.95L40.87 6.95Q41.00 7.21 41.23 7.41L41.23 7.41L41.23 7.41Q41.47 7.62 41.77 7.80L41.77 7.80L41.77 7.80Q42.07 7.98 42.40 8.16L42.40 8.16L42.40 8.16Q42.72 8.33 43.06 8.51L43.06 8.51L43.06 8.51Q43.39 8.69 43.69 8.91L43.69 8.91L43.69 8.91Q43.99 9.13 44.22 9.39L44.22 9.39L44.22 9.39Q44.45 9.64 44.59 9.99L44.59 9.99L44.59 9.99Q44.73 10.34 44.73 10.75L44.73 10.75L44.73 10.75Q44.73 11.33 44.47 11.82L44.47 11.82L44.47 11.82Q44.21 12.31 43.79 12.64L43.79 12.64L43.79 12.64Q43.37 12.97 42.82 13.16L42.82 13.16L42.82 13.16Q42.27 13.34 41.69 13.34L41.69 13.34L41.69 13.34Q40.98 13.34 40.36 13.05L40.36 13.05L40.36 13.05Q39.73 12.76 39.38 12.33L39.38 12.33L39.48 10.51L40.17 10.61L40.43 11.89L40.43 11.89Q40.63 12.21 41.01 12.43L41.01 12.43L41.01 12.43Q41.39 12.65 41.85 12.65L41.85 12.65L41.85 12.65Q42.14 12.65 42.41 12.56L42.41 12.56L42.41 12.56Q42.68 12.48 42.93 12.31L42.93 12.31L42.93 12.31Q43.18 12.15 43.32 11.86L43.32 11.86L43.32 11.86Q43.47 11.57 43.47 11.21L43.47 11.21L43.47 11.21Q43.47 10.85 43.25 10.55L43.25 10.55L43.25 10.55Q43.04 10.25 42.69 10.02L42.69 10.02L42.69 10.02Q42.35 9.80 41.93 9.58L41.93 9.58L41.93 9.58Q41.51 9.36 41.10 9.11L41.10 9.11L41.10 9.11Q40.68 8.86 40.33 8.57L40.33 8.57L40.33 8.57Q39.98 8.28 39.77 7.85L39.77 7.85L39.77 7.85Q39.55 7.42 39.55 6.91L39.55 6.91L39.55 6.91Q39.55 6.17 39.94 5.61L39.94 5.61L39.94 5.61Q40.33 5.04 40.93 4.77L40.93 4.77L40.93 4.77Q41.52 4.49 42.21 4.49L42.21 4.49L42.21 4.49Q43.32 4.49 44.14 5.17L44.14 5.17ZM46.85 5.74L46.85 5.74L47.22 5.74L47.22 7.23L49.14 7.23L49.09 7.83L47.21 7.83L47.18 10.94L47.18 10.99L47.18 10.99Q47.18 11.74 47.42 12.04L47.42 12.04L47.42 12.04Q47.65 12.33 48.19 12.33L48.19 12.33L48.19 12.33Q48.41 12.33 48.66 12.24L48.66 12.24L48.66 12.24Q48.90 12.14 49.04 12.05L49.04 12.05L49.17 11.96L49.31 12.33L49.31 12.33Q48.99 12.79 48.51 13.06L48.51 13.06L48.51 13.06Q48.04 13.33 47.47 13.33L47.47 13.33L47.47 13.33Q47.13 13.33 46.88 13.24L46.88 13.24L46.88 13.24Q46.63 13.15 46.43 12.94L46.43 12.94L46.43 12.94Q46.22 12.73 46.12 12.34L46.12 12.34L46.12 12.34Q46.01 11.96 46.01 11.40L46.01 11.40L46.01 11.19L46.03 7.82L45.16 7.82L45.16 7.45L45.16 7.45Q46.02 6.77 46.85 5.74ZM54.26 10.09L54.26 10.09L50.95 10.12L50.95 10.12Q50.97 10.55 51.10 10.95L51.10 10.95L51.10 10.95Q51.22 11.35 51.44 11.70L51.44 11.70L51.44 11.70Q51.67 12.05 52.04 12.26L52.04 12.26L52.04 12.26Q52.40 12.48 52.86 12.48L52.86 12.48L52.90 12.48L52.90 12.48Q53.19 12.48 53.35 12.46L53.35 12.46L53.35 12.46Q53.52 12.45 53.80 12.36L53.80 12.36L53.80 12.36Q54.08 12.27 54.41 12.10L54.41 12.10L54.56 12.46L54.56 12.46Q54.15 12.89 53.56 13.14L53.56 13.14L53.56 13.14Q52.97 13.38 52.31 13.38L52.31 13.38L52.31 13.38Q51.82 13.38 51.36 13.17L51.36 13.17L51.36 13.17Q50.91 12.97 50.54 12.59L50.54 12.59L50.54 12.59Q50.17 12.22 49.95 11.61L49.95 11.61L49.95 11.61Q49.73 11.00 49.73 10.25L49.73 10.25L49.73 10.25Q49.73 9.50 49.98 8.88L49.98 8.88L49.98 8.88Q50.24 8.26 50.64 7.87L50.64 7.87L50.64 7.87Q51.05 7.47 51.54 7.25L51.54 7.25L51.54 7.25Q52.04 7.03 52.54 7.03L52.54 7.03L52.54 7.03Q53.33 7.03 53.85 7.59L53.85 7.59L53.85 7.59Q54.37 8.16 54.37 9.19L54.37 9.19L54.37 9.19Q54.37 9.59 54.26 10.09ZM50.96 9.59L50.96 9.59L53.11 9.45L53.11 9.45Q53.16 9.30 53.16 8.98L53.16 8.98L53.16 8.98Q53.16 7.70 52.21 7.70L52.21 7.70L52.21 7.70Q51.75 7.70 51.38 8.18L51.38 8.18L51.38 8.18Q51.01 8.66 50.96 9.59ZM55.28 13.17L55.36 12.63L56.40 12.38L56.40 8.18L55.36 7.80L55.45 7.28L57.37 7.12L57.54 7.29L57.54 12.38L58.64 12.62L58.56 13.17L55.28 13.17ZM56.91 4.24L56.91 4.24L56.91 4.24Q57.25 4.24 57.50 4.47L57.50 4.47L57.50 4.47Q57.75 4.70 57.75 5.02L57.75 5.02L57.75 5.02Q57.75 5.36 57.50 5.61L57.50 5.61L57.50 5.61Q57.24 5.86 56.91 5.86L56.91 5.86L56.91 5.86Q56.57 5.86 56.34 5.61L56.34 5.61L56.34 5.61Q56.10 5.36 56.10 5.01L56.10 5.01L56.10 5.01Q56.10 4.68 56.34 4.46L56.34 4.46L56.34 4.46Q56.58 4.24 56.91 4.24ZM65.10 8.96L65.10 8.96L65.10 12.39L66.08 12.63L66.01 13.17L62.93 13.17L63.01 12.68L63.95 12.39L63.95 9.23L63.95 9.23Q63.95 8.59 63.63 8.28L63.63 8.28L63.63 8.28Q63.30 7.96 62.77 7.96L62.77 7.96L62.77 7.96Q62.39 7.96 62.04 8.12L62.04 8.12L62.04 8.12Q61.68 8.28 61.42 8.56L61.42 8.56L61.42 12.39L62.43 12.63L62.34 13.17L59.17 13.17L59.24 12.68L60.27 12.39L60.27 8.24L59.22 7.89L59.29 7.37L61.32 7.10L61.44 7.23L61.32 8.10L61.39 8.10L61.39 8.10Q61.77 7.64 62.31 7.34L62.31 7.34L62.31 7.34Q62.85 7.03 63.45 7.03L63.45 7.03L63.45 7.03Q64.25 7.03 64.67 7.54L64.67 7.54L64.67 7.54Q65.10 8.04 65.10 8.96Z"></path></g><defs data-v-423bf9ae=""><linearGradient data-v-423bf9ae="" gradientTransform="rotate(25)" id="4bb6076f-dcb9-4d68-b09e-17e0ef01bb2e" x1="0%" y1="0%" x2="100%" y2="0%"><stop data-v-423bf9ae="" offset="0%" style="stop-color: rgb(86, 63, 51); stop-opacity: 1;"></stop><stop data-v-423bf9ae="" offset="100%" style="stop-color: rgb(163, 161, 161); stop-opacity: 1;"></stop></linearGradient></defs><g data-v-423bf9ae="" id="9294bf6f-1a67-43fa-a54d-6115fecd5ea5" transform="matrix(2.994410458179972,0,0,2.994410458179972,0.08943266912044834,-1.9385669710569857)" stroke="none" fill="url(#4bb6076f-dcb9-4d68-b09e-17e0ef01bb2e)"><path d="M17.572 23.933l4.106 7.095L32 13.189h-8.981V7.582L11.51.972 0 7.582v13.222l11.51 6.611 6.062-3.482zm10.96-8.744l-6.855 11.846-6.855-11.846h13.71z"></path></g><!----></svg>